<svg xmlns="http://www.w3.org/2000/svg" xmlns:svgjs="http://svgjs.com/svgjs" xmlns:xlink="http://www.w3.org/1999/xlink" style="enable-background:new 0 0 512 512" width="512" height="512" x="0" y="0" version="1.1" viewBox="0 0 512 512" xml:space="preserve"><g><link id="dark-mode-general-link" rel="stylesheet" type="text/css"/><link id="dark-mode-custom-link" rel="stylesheet" type="text/css"/><style id="dark-mode-custom-style" type="text/css"/><g xmlns="http://www.w3.org/2000/svg"><g><path fill="#ed3946" d="M448,64h-48V16c0-8.832-7.168-16-16-16H96C69.536,0,48,21.536,48,48v400c0,35.296,28.704,64,64,64h336 c8.832,0,16-7.168,16-16V80C464,71.168,456.832,64,448,64z M368,400c0,8.832-7.168,16-16,16H160c-8.832,0-16-7.168-16-16v-32 c0-44.128,35.904-80,80-80h64c44.128,0,80,35.872,80,80V400z M192,192c0-35.296,28.704-64,64-64s64,28.704,64,64s-28.704,64-64,64 C220.704,256,192,227.296,192,192z M368,64H96c-8.832,0-16-7.168-16-16c0-8.832,7.168-16,16-16h272V64z" data-original="#000000"/></g></g></g></svg>
